<svg xmlns="http://www.w3.org/2000/svg" width="1200" height="720" viewBox="0 0 1200 720">
  <rect width="1200" height="720" rx="22" fill="#f7fbff"/><rect x="28" y="24" width="1144" height="672" rx="18" fill="#fff" stroke="#dbe8fb"/>
  <g font-family="Arial,'Microsoft YaHei'"><text x="58" y="72" font-size="30" font-weight="800" fill="#10203e">佣金管理系统</text><text x="58" y="104" font-size="15" fill="#71809a">佣金核算、分级发放、对账结算与团队分析</text>
    <rect x="58" y="136" width="330" height="486" rx="16" fill="#fff" stroke="#dfe9f7"/><text x="86" y="180" font-size="20" font-weight="800" fill="#10203e">佣金核算</text><rect x="86" y="212" width="250" height="48" rx="9" fill="#f6faff"/><text x="106" y="242" font-size="15" fill="#53637c">本月应发佣金</text><text x="250" y="242" font-size="15" fill="#106bff" font-weight="800">1,680,000</text><rect x="86" y="278" width="250" height="48" rx="9" fill="#f6faff"/><text x="106" y="308" font-size="15" fill="#53637c">待确认对账</text><text x="292" y="308" font-size="15" fill="#106bff" font-weight="800">23</text><circle cx="212" cy="448" r="70" fill="none" stroke="#106bff" stroke-width="24"/><circle cx="212" cy="448" r="70" fill="none" stroke="#11b39f" stroke-width="24" stroke-dasharray="160 300" transform="rotate(-90 212 448)"/><text x="172" y="458" font-size="24" fill="#10203e" font-weight="800">82.6%</text>
    <rect x="418" y="136" width="724" height="210" rx="16" fill="#fff" stroke="#dfe9f7"/><text x="446" y="180" font-size="20" font-weight="800" fill="#10203e">分级佣金发放</text><text x="446" y="222" font-size="15" fill="#71809a">团队</text><text x="650" y="222" font-size="15" fill="#71809a">层级</text><text x="800" y="222" font-size="15" fill="#71809a">佣金</text><text x="1010" y="222" font-size="15" fill="#71809a">状态</text><path d="M446 238H1110" stroke="#edf3fb"/><text x="446" y="270" font-size="15" fill="#53637c">香港一组</text><text x="650" y="270" font-size="15" fill="#53637c">一级</text><text x="800" y="270" font-size="15" fill="#53637c">680,000 HKD</text><text x="1010" y="270" font-size="15" fill="#11a88f" font-weight="800">已发放</text><text x="446" y="312" font-size="15" fill="#53637c">湾区渠道</text><text x="650" y="312" font-size="15" fill="#53637c">二级</text><text x="800" y="312" font-size="15" fill="#53637c">420,000 HKD</text><text x="1010" y="312" font-size="15" fill="#106bff" font-weight="800">待审批</text>
    <rect x="418" y="376" width="724" height="246" rx="16" fill="#fff" stroke="#dfe9f7"/><text x="446" y="420" font-size="20" font-weight="800" fill="#10203e">团队业绩分析</text><g fill="#106bff"><rect x="464" y="520" width="46" height="70" rx="6"/><rect x="544" y="480" width="46" height="110" rx="6"/><rect x="624" y="504" width="46" height="86" rx="6"/><rect x="704" y="452" width="46" height="138" rx="6"/><rect x="784" y="492" width="46" height="98" rx="6"/><rect x="864" y="466" width="46" height="124" rx="6"/></g><text x="980" y="530" font-size="15" fill="#53637c">对账准确率</text><text x="980" y="568" font-size="30" fill="#11a88f" font-weight="800">99.8%</text>
  </g>
</svg>
