<svg xmlns="http://www.w3.org/2000/svg" width="1200" height="720" viewBox="0 0 1200 720">
  <rect width="1200" height="720" rx="22" fill="#f7fbff"/><rect x="28" y="24" width="1144" height="672" rx="18" fill="#fff" stroke="#dbe8fb"/>
  <g font-family="Arial,'Microsoft YaHei'"><text x="58" y="72" font-size="30" font-weight="800" fill="#10203e">运营工具系统</text><text x="58" y="104" font-size="15" fill="#71809a">名片分享、客户关怀、渠道管理与运营协作</text>
    <rect x="58" y="136" width="330" height="486" rx="16" fill="#fff" stroke="#dfe9f7"/><text x="86" y="180" font-size="20" font-weight="800" fill="#10203e">客户关怀日历</text><rect x="86" y="214" width="274" height="260" rx="14" fill="#f6faff"/><text x="110" y="252" font-size="14" fill="#71809a">2026 年 5 月</text><circle cx="224" cy="340" r="18" fill="#106bff"/><text x="218" y="346" font-size="13" fill="#fff">15</text><circle cx="302" cy="398" r="18" fill="#11a88f"/><text x="296" y="404" font-size="13" fill="#fff">27</text><text x="86" y="526" font-size="15" fill="#53637c">本月客户关怀任务 128</text><text x="86" y="558" font-size="15" fill="#53637c">自动提醒完成率 92%</text>
    <rect x="418" y="136" width="330" height="190" rx="16" fill="#fff" stroke="#dfe9f7"/><text x="446" y="180" font-size="20" font-weight="800" fill="#10203e">电子名片</text><rect x="446" y="208" width="250" height="78" rx="12" fill="#eef5ff"/><circle cx="492" cy="247" r="25" fill="#106bff"/><text x="536" y="242" font-size="18" font-weight="800" fill="#10203e">陈先生</text><text x="536" y="266" font-size="14" fill="#53637c">保险经纪顾问</text>
    <rect x="780" y="136" width="330" height="190" rx="16" fill="#fff" stroke="#dfe9f7"/><text x="808" y="180" font-size="20" font-weight="800" fill="#10203e">渠道管理</text><rect x="808" y="210" width="250" height="36" rx="8" fill="#f6faff"/><text x="828" y="234" font-size="15" fill="#53637c">合作渠道 A · 45%</text><rect x="808" y="260" width="250" height="36" rx="8" fill="#f6faff"/><text x="828" y="284" font-size="15" fill="#53637c">合作渠道 B · 28%</text>
    <rect x="418" y="356" width="692" height="266" rx="16" fill="#fff" stroke="#dfe9f7"/><text x="446" y="400" font-size="20" font-weight="800" fill="#10203e">运营触达效果</text><polyline points="446,552 540,520 634,532 728,476 822,498 916,452 1058,470" fill="none" stroke="#106bff" stroke-width="6" stroke-linecap="round"/><text x="446" y="590" font-size="15" fill="#53637c">触达客户 3,240 · 名片分享 860 · 渠道协作 128</text>
  </g>
</svg>
