<svg xmlns="http://www.w3.org/2000/svg" width="1200" height="720" viewBox="0 0 1200 720">
  <rect width="1200" height="720" rx="22" fill="#f7fbff"/><rect x="28" y="24" width="1144" height="672" rx="18" fill="#fff" stroke="#dbe8fb"/>
  <g font-family="Arial,'Microsoft YaHei'"><text x="58" y="72" font-size="30" font-weight="800" fill="#10203e">保单服务系统</text><text x="58" y="104" font-size="15" fill="#71809a">工单管理、保单汇总、保费到期提醒与客户服务跟进</text>
    <rect x="58" y="136" width="330" height="486" rx="16" fill="#fff" stroke="#dfe9f7"/><text x="86" y="180" font-size="20" font-weight="800" fill="#10203e">服务工单</text><g font-size="15" fill="#53637c"><rect x="86" y="210" width="274" height="62" rx="10" fill="#f6faff"/><text x="106" y="238">保单地址变更</text><text x="106" y="260" fill="#71809a">待处理 · 今天</text><rect x="86" y="288" width="274" height="62" rx="10" fill="#f6faff"/><text x="106" y="316">理赔资料补交</text><text x="106" y="338" fill="#71809a">跟进中 · 明天</text><rect x="86" y="366" width="274" height="62" rx="10" fill="#f6faff"/><text x="106" y="394">续保提醒</text><text x="106" y="416" fill="#71809a">自动提醒 · 7 天后</text><rect x="86" y="444" width="274" height="62" rx="10" fill="#f6faff"/><text x="106" y="472">受益人变更</text><text x="106" y="494" fill="#71809a">客户确认中</text></g>
    <rect x="418" y="136" width="724" height="230" rx="16" fill="#fff" stroke="#dfe9f7"/><text x="446" y="180" font-size="20" font-weight="800" fill="#10203e">保单汇总</text><g font-size="15" fill="#53637c"><text x="446" y="222">保单编号</text><text x="650" y="222">客户</text><text x="800" y="222">产品</text><text x="1010" y="222">状态</text><path d="M446 238H1110" stroke="#edf3fb"/><text x="446" y="270">POL20260503001</text><text x="650" y="270">郭女士</text><text x="800" y="270">储蓄计划</text><text x="1010" y="270" fill="#11a88f" font-weight="800">生效中</text><text x="446" y="312">POL20260502008</text><text x="650" y="312">陈先生</text><text x="800" y="312">医疗保障</text><text x="1010" y="312" fill="#106bff" font-weight="800">待缴费</text></g>
    <rect x="418" y="392" width="724" height="230" rx="16" fill="#fff" stroke="#dfe9f7"/><text x="446" y="436" font-size="20" font-weight="800" fill="#10203e">到期提醒</text><g transform="translate(446 466)"><rect width="190" height="82" rx="12" fill="#eef5ff"/><text x="22" y="42" font-size="28" font-weight="800" fill="#106bff">42</text><text x="22" y="66" font-size="14" fill="#53637c">30 天内到期</text><rect x="220" width="190" height="82" rx="12" fill="#e9fbf6"/><text x="242" y="42" font-size="28" font-weight="800" fill="#11a88f">96%</text><text x="242" y="66" font-size="14" fill="#53637c">服务响应率</text><rect x="440" width="190" height="82" rx="12" fill="#fff8e8"/><text x="462" y="42" font-size="28" font-weight="800" fill="#f59f00">12</text><text x="462" y="66" font-size="14" fill="#53637c">待客户确认</text></g>
  </g>
</svg>
