<svg xmlns="http://www.w3.org/2000/svg" width="1200" height="720" viewBox="0 0 1200 720">
  <rect width="1200" height="720" rx="22" fill="#f7fbff"/><rect x="28" y="24" width="1144" height="672" rx="18" fill="#fff" stroke="#dbe8fb"/>
  <g font-family="Arial,'Microsoft YaHei'">
    <text x="58" y="72" font-size="30" font-weight="800" fill="#10203e">签单系统</text><text x="58" y="104" font-size="15" fill="#71809a">预约签单、新单跟进、电子化资料收集与进度追踪</text>
    <rect x="58" y="136" width="336" height="458" rx="16" fill="#fff" stroke="#dfe9f7"/><text x="86" y="182" font-size="20" font-weight="800" fill="#10203e">签单流程</text>
    <g font-size="16" font-weight="700"><circle cx="112" cy="236" r="16" fill="#106bff"/><text x="150" y="242" fill="#10203e">预约签单</text><path d="M112 252V292" stroke="#cfe1ff" stroke-width="3"/><circle cx="112" cy="310" r="16" fill="#106bff"/><text x="150" y="316" fill="#10203e">资料收集</text><path d="M112 326V366" stroke="#cfe1ff" stroke-width="3"/><circle cx="112" cy="384" r="16" fill="#106bff"/><text x="150" y="390" fill="#10203e">电子签名</text><path d="M112 400V440" stroke="#cfe1ff" stroke-width="3"/><circle cx="112" cy="458" r="16" fill="#11b39f"/><text x="150" y="464" fill="#10203e">新单跟进</text></g>
    <rect x="422" y="136" width="720" height="190" rx="16" fill="#fff" stroke="#dfe9f7"/><text x="450" y="180" font-size="20" font-weight="800" fill="#10203e">今日预约</text>
    <g font-size="15" fill="#53637c"><rect x="450" y="210" width="660" height="36" rx="8" fill="#f6faff"/><text x="470" y="234">10:30 郭女士 - 储蓄计划签单</text><text x="990" y="234" fill="#106bff" font-weight="800">待确认</text><rect x="450" y="258" width="660" height="36" rx="8" fill="#f6faff"/><text x="470" y="282">15:00 陈先生 - 医疗保障资料补交</text><text x="990" y="282" fill="#11a88f" font-weight="800">进行中</text></g>
    <rect x="422" y="352" width="720" height="150" rx="16" fill="#fff" stroke="#dfe9f7"/><text x="450" y="396" font-size="20" font-weight="800" fill="#10203e">新单跟进看板</text>
    <g transform="translate(450 426)"><rect width="150" height="60" rx="10" fill="#eef5ff"/><text x="20" y="36" font-size="26" font-weight="800" fill="#106bff">27</text><text x="70" y="36" font-size="14" fill="#53637c">待提交</text><rect x="180" width="150" height="60" rx="10" fill="#eef5ff"/><text x="200" y="36" font-size="26" font-weight="800" fill="#106bff">18</text><text x="250" y="36" font-size="14" fill="#53637c">核保中</text><rect x="360" width="150" height="60" rx="10" fill="#e9fbf6"/><text x="380" y="36" font-size="26" font-weight="800" fill="#11a88f">56</text><text x="430" y="36" font-size="14" fill="#53637c">已完成</text></g>
    <rect x="58" y="620" width="1084" height="52" rx="14" fill="#fff" stroke="#dfe9f7"/><g font-size="14" fill="#53637c"><text x="86" y="653">资料齐备率 96%</text><text x="282" y="653">电子签署 128 份</text><text x="516" y="653">待跟进新单 23</text><text x="760" y="653">平均处理时长 1.8 天</text></g>
    <rect x="422" y="528" width="720" height="66" rx="16" fill="#fff" stroke="#dfe9f7"/><text x="450" y="568" font-size="18" font-weight="800" fill="#10203e">资料进度</text><text x="602" y="568" font-size="15" fill="#53637c">郭女士 · 已齐备</text><text x="820" y="568" font-size="15" fill="#53637c">李先生 · 待签署</text><text x="1010" y="568" font-size="15" fill="#106bff" font-weight="800">查看全部</text>
  </g>
</svg>
